<?xml version="1.0" encoding="UTF-8" standalone="no"?>
<!DOCTYPE svg PUBLIC "-//W3C//DTD SVG 1.1//EN"
 "http://www.w3.org/Graphics/SVG/1.1/DTD/svg11.dtd">
<!-- Generated by graphviz version 14.1.2 (20260124.0452)
 -->
<!-- Title: G Pages: 1 -->
<svg width="862pt" height="417pt"
 viewBox="0.00 0.00 862.00 417.00" xmlns="http://www.w3.org/2000/svg" xmlns:xlink="http://www.w3.org/1999/xlink">
<g id="graph0" class="graph" transform="scale(1 1) rotate(0) translate(21.6 395.35)">
<title>G</title>
<polygon fill="#111111" stroke="none" points="-21.6,21.6 -21.6,-395.35 840.85,-395.35 840.85,21.6 -21.6,21.6"/>
<!-- authUtils.js -->
<g id="node1" class="node">
<title>authUtils.js</title>
<path fill="none" stroke="#cfffac" d="M149.46,-121.75C149.46,-121.75 83.29,-121.75 83.29,-121.75 79.33,-121.75 75.38,-117.79 75.38,-113.83 75.38,-113.83 75.38,-105.92 75.38,-105.92 75.38,-101.96 79.33,-98 83.29,-98 83.29,-98 149.46,-98 149.46,-98 153.42,-98 157.38,-101.96 157.38,-105.92 157.38,-105.92 157.38,-113.83 157.38,-113.83 157.38,-117.79 153.42,-121.75 149.46,-121.75"/>
<text xml:space="preserve" text-anchor="middle" x="116.38" y="-104.45" font-family="Arial" font-size="14.00" fill="#cfffac">authUtils.js</text>
</g>
<!-- lib/audit.js -->
<g id="node2" class="node">
<title>lib/audit.js</title>
<path fill="none" stroke="#c6c5fe" d="M592.83,-305.75C592.83,-305.75 532.67,-305.75 532.67,-305.75 528.71,-305.75 524.75,-301.79 524.75,-297.83 524.75,-297.83 524.75,-289.92 524.75,-289.92 524.75,-285.96 528.71,-282 532.67,-282 532.67,-282 592.83,-282 592.83,-282 596.79,-282 600.75,-285.96 600.75,-289.92 600.75,-289.92 600.75,-297.83 600.75,-297.83 600.75,-301.79 596.79,-305.75 592.83,-305.75"/>
<text xml:space="preserve" text-anchor="middle" x="562.75" y="-288.45" font-family="Arial" font-size="14.00" fill="#c6c5fe">lib/audit.js</text>
</g>
<!-- lib/supabaseClient.js -->
<g id="node3" class="node">
<title>lib/supabaseClient.js</title>
<path fill="none" stroke="#cfffac" d="M811.33,-181.75C811.33,-181.75 687.42,-181.75 687.42,-181.75 683.46,-181.75 679.5,-177.79 679.5,-173.83 679.5,-173.83 679.5,-165.92 679.5,-165.92 679.5,-161.96 683.46,-158 687.42,-158 687.42,-158 811.33,-158 811.33,-158 815.29,-158 819.25,-161.96 819.25,-165.92 819.25,-165.92 819.25,-173.83 819.25,-173.83 819.25,-177.79 815.29,-181.75 811.33,-181.75"/>
<text xml:space="preserve" text-anchor="middle" x="749.38" y="-164.45" font-family="Arial" font-size="14.00" fill="#cfffac">lib/supabaseClient.js</text>
</g>
<!-- lib/audit.js&#45;&gt;lib/supabaseClient.js -->
<g id="edge1" class="edge">
<title>lib/audit.js&#45;&gt;lib/supabaseClient.js</title>
<path fill="none" stroke="#757575" d="M601.02,-288.24C614.97,-285.08 630.56,-280.23 643.5,-272.88 680.55,-251.81 713.89,-214.4 732.59,-190.93"/>
<polygon fill="#757575" stroke="#757575" points="735.15,-193.34 738.53,-183.3 729.63,-189.04 735.15,-193.34"/>
</g>
<!-- lib/auditLog.js -->
<g id="node4" class="node">
<title>lib/auditLog.js</title>
<path fill="none" stroke="#c6c5fe" d="M604.08,-263.75C604.08,-263.75 521.42,-263.75 521.42,-263.75 517.46,-263.75 513.5,-259.79 513.5,-255.83 513.5,-255.83 513.5,-247.92 513.5,-247.92 513.5,-243.96 517.46,-240 521.42,-240 521.42,-240 604.08,-240 604.08,-240 608.04,-240 612,-243.96 612,-247.92 612,-247.92 612,-255.83 612,-255.83 612,-259.79 608.04,-263.75 604.08,-263.75"/>
<text xml:space="preserve" text-anchor="middle" x="562.75" y="-246.45" font-family="Arial" font-size="14.00" fill="#c6c5fe">lib/auditLog.js</text>
</g>
<!-- lib/auditLog.js&#45;&gt;lib/supabaseClient.js -->
<g id="edge2" class="edge">
<title>lib/auditLog.js&#45;&gt;lib/supabaseClient.js</title>
<path fill="none" stroke="#757575" d="M612.09,-241.38C622.62,-238.48 633.58,-234.98 643.5,-230.88 671.27,-219.39 700.65,-201.76 721.23,-188.41"/>
<polygon fill="#757575" stroke="#757575" points="722.9,-191.5 729.32,-183.07 719.05,-185.66 722.9,-191.5"/>
</g>
<!-- lib/stateMachine.js -->
<g id="node5" class="node">
<title>lib/stateMachine.js</title>
<path fill="none" stroke="#cfffac" d="M172.33,-205.75C172.33,-205.75 60.42,-205.75 60.42,-205.75 56.46,-205.75 52.5,-201.79 52.5,-197.83 52.5,-197.83 52.5,-189.92 52.5,-189.92 52.5,-185.96 56.46,-182 60.42,-182 60.42,-182 172.33,-182 172.33,-182 176.29,-182 180.25,-185.96 180.25,-189.92 180.25,-189.92 180.25,-197.83 180.25,-197.83 180.25,-201.79 176.29,-205.75 172.33,-205.75"/>
<text xml:space="preserve" text-anchor="middle" x="116.38" y="-188.45" font-family="Arial" font-size="14.00" fill="#cfffac">lib/stateMachine.js</text>
</g>
<!-- middleware/auth.js -->
<g id="node6" class="node">
<title>middleware/auth.js</title>
<path fill="none" stroke="#c6c5fe" d="M619.46,-221.75C619.46,-221.75 506.04,-221.75 506.04,-221.75 502.08,-221.75 498.12,-217.79 498.12,-213.83 498.12,-213.83 498.12,-205.92 498.12,-205.92 498.12,-201.96 502.08,-198 506.04,-198 506.04,-198 619.46,-198 619.46,-198 623.42,-198 627.38,-201.96 627.38,-205.92 627.38,-205.92 627.38,-213.83 627.38,-213.83 627.38,-217.79 623.42,-221.75 619.46,-221.75"/>
<text xml:space="preserve" text-anchor="middle" x="562.75" y="-204.45" font-family="Arial" font-size="14.00" fill="#c6c5fe">middleware/auth.js</text>
</g>
<!-- middleware/auth.js&#45;&gt;lib/supabaseClient.js -->
<g id="edge3" class="edge">
<title>middleware/auth.js&#45;&gt;lib/supabaseClient.js</title>
<path fill="none" stroke="#757575" d="M620.65,-197.55C639.51,-193.46 660.7,-188.87 680.32,-184.62"/>
<polygon fill="#757575" stroke="#757575" points="680.83,-188.09 689.87,-182.55 679.35,-181.25 680.83,-188.09"/>
</g>
<!-- routes/admin.js -->
<g id="node7" class="node">
<title>routes/admin.js</title>
<path fill="none" stroke="#cfffac" d="M403.58,-226.75C403.58,-226.75 311.17,-226.75 311.17,-226.75 307.21,-226.75 303.25,-222.79 303.25,-218.83 303.25,-218.83 303.25,-210.92 303.25,-210.92 303.25,-206.96 307.21,-203 311.17,-203 311.17,-203 403.58,-203 403.58,-203 407.54,-203 411.5,-206.96 411.5,-210.92 411.5,-210.92 411.5,-218.83 411.5,-218.83 411.5,-222.79 407.54,-226.75 403.58,-226.75"/>
<text xml:space="preserve" text-anchor="middle" x="357.38" y="-209.45" font-family="Arial" font-size="14.00" fill="#cfffac">routes/admin.js</text>
</g>
<!-- routes/admin/approveRegistration.js -->
<g id="node8" class="node">
<title>routes/admin/approveRegistration.js</title>
<path fill="none" stroke="#cfffac" d="M224.83,-247.75C224.83,-247.75 7.92,-247.75 7.92,-247.75 3.96,-247.75 0,-243.79 0,-239.83 0,-239.83 0,-231.92 0,-231.92 0,-227.96 3.96,-224 7.92,-224 7.92,-224 224.83,-224 224.83,-224 228.79,-224 232.75,-227.96 232.75,-231.92 232.75,-231.92 232.75,-239.83 232.75,-239.83 232.75,-243.79 228.79,-247.75 224.83,-247.75"/>
<text xml:space="preserve" text-anchor="middle" x="116.38" y="-230.45" font-family="Arial" font-size="14.00" fill="#cfffac">routes/admin/approveRegistration.js</text>
</g>
<!-- routes/adminDocuments.js -->
<g id="node9" class="node">
<title>routes/adminDocuments.js</title>
<path fill="none" stroke="#c6c5fe" d="M438.08,-184.75C438.08,-184.75 276.67,-184.75 276.67,-184.75 272.71,-184.75 268.75,-180.79 268.75,-176.83 268.75,-176.83 268.75,-168.92 268.75,-168.92 268.75,-164.96 272.71,-161 276.67,-161 276.67,-161 438.08,-161 438.08,-161 442.04,-161 446,-164.96 446,-168.92 446,-168.92 446,-176.83 446,-176.83 446,-180.79 442.04,-184.75 438.08,-184.75"/>
<text xml:space="preserve" text-anchor="middle" x="357.38" y="-167.45" font-family="Arial" font-size="14.00" fill="#c6c5fe">routes/adminDocuments.js</text>
</g>
<!-- routes/adminDocuments.js&#45;&gt;lib/supabaseClient.js -->
<g id="edge4" class="edge">
<title>routes/adminDocuments.js&#45;&gt;lib/supabaseClient.js</title>
<path fill="none" stroke="#757575" d="M446.38,-172.2C512.83,-171.69 603.27,-170.99 667.82,-170.49"/>
<polygon fill="#757575" stroke="#757575" points="667.67,-174 677.64,-170.42 667.62,-167 667.67,-174"/>
</g>
<!-- routes/businesses.js -->
<g id="node10" class="node">
<title>routes/businesses.js</title>
<path fill="none" stroke="#cfffac" d="M418.58,-142.75C418.58,-142.75 296.17,-142.75 296.17,-142.75 292.21,-142.75 288.25,-138.79 288.25,-134.83 288.25,-134.83 288.25,-126.92 288.25,-126.92 288.25,-122.96 292.21,-119 296.17,-119 296.17,-119 418.58,-119 418.58,-119 422.54,-119 426.5,-122.96 426.5,-126.92 426.5,-126.92 426.5,-134.83 426.5,-134.83 426.5,-138.79 422.54,-142.75 418.58,-142.75"/>
<text xml:space="preserve" text-anchor="middle" x="357.38" y="-125.45" font-family="Arial" font-size="14.00" fill="#cfffac">routes/businesses.js</text>
</g>
<!-- routes/ozow.js -->
<g id="node11" class="node">
<title>routes/ozow.js</title>
<path fill="none" stroke="#c6c5fe" d="M400.21,-100.75C400.21,-100.75 314.54,-100.75 314.54,-100.75 310.58,-100.75 306.62,-96.79 306.62,-92.83 306.62,-92.83 306.62,-84.92 306.62,-84.92 306.62,-80.96 310.58,-77 314.54,-77 314.54,-77 400.21,-77 400.21,-77 404.17,-77 408.12,-80.96 408.12,-84.92 408.12,-84.92 408.12,-92.83 408.12,-92.83 408.12,-96.79 404.17,-100.75 400.21,-100.75"/>
<text xml:space="preserve" text-anchor="middle" x="357.38" y="-83.45" font-family="Arial" font-size="14.00" fill="#c6c5fe">routes/ozow.js</text>
</g>
<!-- routes/ozow.js&#45;&gt;lib/supabaseClient.js -->
<g id="edge5" class="edge">
<title>routes/ozow.js&#45;&gt;lib/supabaseClient.js</title>
<path fill="none" stroke="#757575" d="M408.56,-99.3C477,-113.51 599.94,-139.05 677.68,-155.19"/>
<polygon fill="#757575" stroke="#757575" points="676.83,-158.59 687.33,-157.2 678.25,-151.74 676.83,-158.59"/>
</g>
<!-- services/ozowService.js -->
<g id="node12" class="node">
<title>services/ozowService.js</title>
<path fill="none" stroke="#cfffac" d="M634.46,-103.75C634.46,-103.75 491.04,-103.75 491.04,-103.75 487.08,-103.75 483.12,-99.79 483.12,-95.83 483.12,-95.83 483.12,-87.92 483.12,-87.92 483.12,-83.96 487.08,-80 491.04,-80 491.04,-80 634.46,-80 634.46,-80 638.42,-80 642.38,-83.96 642.38,-87.92 642.38,-87.92 642.38,-95.83 642.38,-95.83 642.38,-99.79 638.42,-103.75 634.46,-103.75"/>
<text xml:space="preserve" text-anchor="middle" x="562.75" y="-86.45" font-family="Arial" font-size="14.00" fill="#cfffac">services/ozowService.js</text>
</g>
<!-- routes/ozow.js&#45;&gt;services/ozowService.js -->
<g id="edge6" class="edge">
<title>routes/ozow.js&#45;&gt;services/ozowService.js</title>
<path fill="none" stroke="#757575" d="M408.39,-89.61C427.52,-89.89 449.97,-90.23 471.7,-90.55"/>
<polygon fill="#757575" stroke="#757575" points="471.42,-94.04 481.47,-90.69 471.52,-87.04 471.42,-94.04"/>
</g>
<!-- routes/webhooks/ozow.js -->
<g id="node13" class="node">
<title>routes/webhooks/ozow.js</title>
<path fill="none" stroke="#c6c5fe" d="M432.46,-58.75C432.46,-58.75 282.29,-58.75 282.29,-58.75 278.33,-58.75 274.38,-54.79 274.38,-50.83 274.38,-50.83 274.38,-42.92 274.38,-42.92 274.38,-38.96 278.33,-35 282.29,-35 282.29,-35 432.46,-35 432.46,-35 436.42,-35 440.38,-38.96 440.38,-42.92 440.38,-42.92 440.38,-50.83 440.38,-50.83 440.38,-54.79 436.42,-58.75 432.46,-58.75"/>
<text xml:space="preserve" text-anchor="middle" x="357.38" y="-41.45" font-family="Arial" font-size="14.00" fill="#c6c5fe">routes/webhooks/ozow.js</text>
</g>
<!-- routes/webhooks/ozow.js&#45;&gt;lib/supabaseClient.js -->
<g id="edge7" class="edge">
<title>routes/webhooks/ozow.js&#45;&gt;lib/supabaseClient.js</title>
<path fill="none" stroke="#757575" d="M440.58,-39.75C499.55,-37.92 579.55,-42.3 643.5,-70.88 681.87,-88.02 715.02,-125.25 733.29,-148.85"/>
<polygon fill="#757575" stroke="#757575" points="730.25,-150.64 739.06,-156.53 735.85,-146.44 730.25,-150.64"/>
</g>
<!-- services/feeCalculator.js -->
<g id="node14" class="node">
<title>services/feeCalculator.js</title>
<path fill="none" stroke="#c6c5fe" d="M635.58,-23.75C635.58,-23.75 489.92,-23.75 489.92,-23.75 485.96,-23.75 482,-19.79 482,-15.83 482,-15.83 482,-7.92 482,-7.92 482,-3.96 485.96,0 489.92,0 489.92,0 635.58,0 635.58,0 639.54,0 643.5,-3.96 643.5,-7.92 643.5,-7.92 643.5,-15.83 643.5,-15.83 643.5,-19.79 639.54,-23.75 635.58,-23.75"/>
<text xml:space="preserve" text-anchor="middle" x="562.75" y="-6.45" font-family="Arial" font-size="14.00" fill="#c6c5fe">services/feeCalculator.js</text>
</g>
<!-- routes/webhooks/ozow.js&#45;&gt;services/feeCalculator.js -->
<g id="edge8" class="edge">
<title>routes/webhooks/ozow.js&#45;&gt;services/feeCalculator.js</title>
<path fill="none" stroke="#757575" d="M430.08,-34.54C445.87,-31.82 462.73,-28.92 478.92,-26.13"/>
<polygon fill="#757575" stroke="#757575" points="479.26,-29.62 488.52,-24.48 478.07,-22.72 479.26,-29.62"/>
</g>
<!-- services/feeCalculator.js&#45;&gt;lib/supabaseClient.js -->
<g id="edge15" class="edge">
<title>services/feeCalculator.js&#45;&gt;lib/supabaseClient.js</title>
<path fill="none" stroke="#757575" d="M616.45,-24.2C625.93,-27.74 635.37,-32.22 643.5,-37.88 685.89,-67.33 719.64,-118.84 736.54,-148.04"/>
<polygon fill="#757575" stroke="#757575" points="733.29,-149.4 741.25,-156.39 739.39,-145.96 733.29,-149.4"/>
</g>
<!-- server.js -->
<g id="node15" class="node">
<title>server.js</title>
<path fill="none" stroke="#c6c5fe" d="M141.58,-163.75C141.58,-163.75 91.17,-163.75 91.17,-163.75 87.21,-163.75 83.25,-159.79 83.25,-155.83 83.25,-155.83 83.25,-147.92 83.25,-147.92 83.25,-143.96 87.21,-140 91.17,-140 91.17,-140 141.58,-140 141.58,-140 145.54,-140 149.5,-143.96 149.5,-147.92 149.5,-147.92 149.5,-155.83 149.5,-155.83 149.5,-159.79 145.54,-163.75 141.58,-163.75"/>
<text xml:space="preserve" text-anchor="middle" x="116.38" y="-146.45" font-family="Arial" font-size="14.00" fill="#c6c5fe">server.js</text>
</g>
<!-- server.js&#45;&gt;middleware/auth.js -->
<g id="edge9" class="edge">
<title>server.js&#45;&gt;middleware/auth.js</title>
<path fill="none" stroke="#757575" d="M149.79,-150.67C174.61,-151.32 208.57,-155.76 232.75,-172.88 259.07,-191.5 240.86,-219.69 268.75,-235.88 336.89,-275.42 367.7,-244.56 446,-235.88 465.93,-233.66 487.44,-229.38 506.44,-224.91"/>
<polygon fill="#757575" stroke="#757575" points="507.25,-228.31 516.15,-222.55 505.6,-221.51 507.25,-228.31"/>
</g>
<!-- server.js&#45;&gt;routes/admin.js -->
<g id="edge10" class="edge">
<title>server.js&#45;&gt;routes/admin.js</title>
<path fill="none" stroke="#757575" d="M149.5,-154.7C173.1,-157.49 205.63,-162.85 232.75,-172.88 250.12,-179.3 251.56,-186.98 268.75,-193.88 276.05,-196.81 283.87,-199.4 291.71,-201.66"/>
<polygon fill="#757575" stroke="#757575" points="290.74,-205.03 301.31,-204.27 292.58,-198.27 290.74,-205.03"/>
</g>
<!-- server.js&#45;&gt;routes/adminDocuments.js -->
<g id="edge11" class="edge">
<title>server.js&#45;&gt;routes/adminDocuments.js</title>
<path fill="none" stroke="#757575" d="M149.61,-154.71C177.27,-157.14 218.64,-160.77 257.12,-164.15"/>
<polygon fill="#757575" stroke="#757575" points="256.65,-167.63 266.91,-165.01 257.26,-160.65 256.65,-167.63"/>
</g>
<!-- server.js&#45;&gt;routes/businesses.js -->
<g id="edge12" class="edge">
<title>server.js&#45;&gt;routes/businesses.js</title>
<path fill="none" stroke="#757575" d="M149.61,-149.04C182.01,-146.2 233.22,-141.7 276.58,-137.89"/>
<polygon fill="#757575" stroke="#757575" points="276.83,-141.38 286.48,-137.02 276.21,-134.41 276.83,-141.38"/>
</g>
<!-- server.js&#45;&gt;routes/ozow.js -->
<g id="edge13" class="edge">
<title>server.js&#45;&gt;routes/ozow.js</title>
<path fill="none" stroke="#757575" d="M149.5,-149.05C173.1,-146.26 205.63,-140.9 232.75,-130.88 250.12,-124.45 251.56,-116.77 268.75,-109.88 277.21,-106.48 286.37,-103.54 295.46,-101.03"/>
<polygon fill="#757575" stroke="#757575" points="296.2,-104.45 305,-98.55 294.44,-97.68 296.2,-104.45"/>
</g>
<!-- server.js&#45;&gt;routes/webhooks/ozow.js -->
<g id="edge14" class="edge">
<title>server.js&#45;&gt;routes/webhooks/ozow.js</title>
<path fill="none" stroke="#757575" d="M149.79,-153.08C174.61,-152.43 208.57,-147.99 232.75,-130.88 259.07,-112.25 242.95,-87.22 268.75,-67.88 270.49,-66.57 272.29,-65.35 274.15,-64.2"/>
<polygon fill="#757575" stroke="#757575" points="275.34,-67.54 282.54,-59.77 272.06,-61.35 275.34,-67.54"/>
</g>
<!-- services/emailService.js -->
<g id="node16" class="node">
<title>services/emailService.js</title>
<path fill="none" stroke="#cfffac" d="M188.83,-289.75C188.83,-289.75 43.92,-289.75 43.92,-289.75 39.96,-289.75 36,-285.79 36,-281.83 36,-281.83 36,-273.92 36,-273.92 36,-269.96 39.96,-266 43.92,-266 43.92,-266 188.83,-266 188.83,-266 192.79,-266 196.75,-269.96 196.75,-273.92 196.75,-273.92 196.75,-281.83 196.75,-281.83 196.75,-285.79 192.79,-289.75 188.83,-289.75"/>
<text xml:space="preserve" text-anchor="middle" x="116.38" y="-272.45" font-family="Arial" font-size="14.00" fill="#cfffac">services/emailService.js</text>
</g>
<!-- services/payoutBatchService.js -->
<g id="node17" class="node">
<title>services/payoutBatchService.js</title>
<path fill="none" stroke="#cfffac" d="M209.83,-331.75C209.83,-331.75 22.92,-331.75 22.92,-331.75 18.96,-331.75 15,-327.79 15,-323.83 15,-323.83 15,-315.92 15,-315.92 15,-311.96 18.96,-308 22.92,-308 22.92,-308 209.83,-308 209.83,-308 213.79,-308 217.75,-311.96 217.75,-315.92 217.75,-315.92 217.75,-323.83 217.75,-323.83 217.75,-327.79 213.79,-331.75 209.83,-331.75"/>
<text xml:space="preserve" text-anchor="middle" x="116.38" y="-314.45" font-family="Arial" font-size="14.00" fill="#cfffac">services/payoutBatchService.js</text>
</g>
<!-- utils/paymentPageTemplate.js -->
<g id="node18" class="node">
<title>utils/paymentPageTemplate.js</title>
<path fill="none" stroke="#cfffac" d="M206.83,-373.75C206.83,-373.75 25.92,-373.75 25.92,-373.75 21.96,-373.75 18,-369.79 18,-365.83 18,-365.83 18,-357.92 18,-357.92 18,-353.96 21.96,-350 25.92,-350 25.92,-350 206.83,-350 206.83,-350 210.79,-350 214.75,-353.96 214.75,-357.92 214.75,-357.92 214.75,-365.83 214.75,-365.83 214.75,-369.79 210.79,-373.75 206.83,-373.75"/>
<text xml:space="preserve" text-anchor="middle" x="116.38" y="-356.45" font-family="Arial" font-size="14.00" fill="#cfffac">utils/paymentPageTemplate.js</text>
</g>
</g>
</svg>
