<?xml version="1.0" encoding="UTF-8" standalone="no"?>
<!DOCTYPE svg PUBLIC "-//W3C//DTD SVG 1.1//EN"
 "http://www.w3.org/Graphics/SVG/1.1/DTD/svg11.dtd">
<!-- Generated by graphviz version 14.1.2 (20260124.0452)
 -->
<!-- Title: G Pages: 1 -->
<svg width="927pt" height="845pt"
 viewBox="0.00 0.00 927.00 845.00" xmlns="http://www.w3.org/2000/svg" xmlns:xlink="http://www.w3.org/1999/xlink">
<g id="graph0" class="graph" transform="scale(1 1) rotate(0) translate(21.6 823.01)">
<title>G</title>
<polygon fill="#111111" stroke="none" points="-21.6,21.6 -21.6,-823.01 905.6,-823.01 905.6,21.6 -21.6,21.6"/>
<!-- App.jsx -->
<g id="node1" class="node">
<title>App.jsx</title>
<path fill="none" stroke="#c6c5fe" d="M256.58,-401.75C256.58,-401.75 212.17,-401.75 212.17,-401.75 208.21,-401.75 204.25,-397.79 204.25,-393.83 204.25,-393.83 204.25,-385.92 204.25,-385.92 204.25,-381.96 208.21,-378 212.17,-378 212.17,-378 256.58,-378 256.58,-378 260.54,-378 264.5,-381.96 264.5,-385.92 264.5,-385.92 264.5,-393.83 264.5,-393.83 264.5,-397.79 260.54,-401.75 256.58,-401.75"/>
<text xml:space="preserve" text-anchor="middle" x="234.38" y="-384.45" font-family="Arial" font-size="14.00" fill="#c6c5fe">App.jsx</text>
</g>
<!-- components/Layout.jsx -->
<g id="node2" class="node">
<title>components/Layout.jsx</title>
<path fill="none" stroke="#c6c5fe" d="M503.58,-317.75C503.58,-317.75 364.67,-317.75 364.67,-317.75 360.71,-317.75 356.75,-313.79 356.75,-309.83 356.75,-309.83 356.75,-301.92 356.75,-301.92 356.75,-297.96 360.71,-294 364.67,-294 364.67,-294 503.58,-294 503.58,-294 507.54,-294 511.5,-297.96 511.5,-301.92 511.5,-301.92 511.5,-309.83 511.5,-309.83 511.5,-313.79 507.54,-317.75 503.58,-317.75"/>
<text xml:space="preserve" text-anchor="middle" x="434.12" y="-300.45" font-family="Arial" font-size="14.00" fill="#c6c5fe">components/Layout.jsx</text>
</g>
<!-- App.jsx&#45;&gt;components/Layout.jsx -->
<g id="edge1" class="edge">
<title>App.jsx&#45;&gt;components/Layout.jsx</title>
<path fill="none" stroke="#757575" d="M258.41,-377.57C262.6,-374.93 266.81,-371.99 270.5,-368.88 289.3,-353.03 285.08,-338.95 306.5,-326.88 318.45,-320.14 331.97,-315.43 345.62,-312.16"/>
<polygon fill="#757575" stroke="#757575" points="346.03,-315.65 355.08,-310.15 344.57,-308.8 346.03,-315.65"/>
</g>
<!-- components/ProtectedRoute.jsx -->
<g id="node3" class="node">
<title>components/ProtectedRoute.jsx</title>
<path fill="none" stroke="#c6c5fe" d="M530.21,-275.75C530.21,-275.75 338.04,-275.75 338.04,-275.75 334.08,-275.75 330.12,-271.79 330.12,-267.83 330.12,-267.83 330.12,-259.92 330.12,-259.92 330.12,-255.96 334.08,-252 338.04,-252 338.04,-252 530.21,-252 530.21,-252 534.17,-252 538.12,-255.96 538.12,-259.92 538.12,-259.92 538.12,-267.83 538.12,-267.83 538.12,-271.79 534.17,-275.75 530.21,-275.75"/>
<text xml:space="preserve" text-anchor="middle" x="434.12" y="-258.45" font-family="Arial" font-size="14.00" fill="#c6c5fe">components/ProtectedRoute.jsx</text>
</g>
<!-- App.jsx&#45;&gt;components/ProtectedRoute.jsx -->
<g id="edge2" class="edge">
<title>App.jsx&#45;&gt;components/ProtectedRoute.jsx</title>
<path fill="none" stroke="#757575" d="M260.32,-377.69C264.05,-375.13 267.6,-372.19 270.5,-368.88 297.23,-338.3 274.54,-309.94 306.5,-284.88 310.55,-281.69 314.91,-278.92 319.48,-276.5"/>
<polygon fill="#757575" stroke="#757575" points="320.79,-279.74 328.41,-272.38 317.87,-273.39 320.79,-279.74"/>
</g>
<!-- pages/AdminAuditLog.jsx -->
<g id="node4" class="node">
<title>pages/AdminAuditLog.jsx</title>
<path fill="none" stroke="#c6c5fe" d="M510.71,-485.75C510.71,-485.75 357.54,-485.75 357.54,-485.75 353.58,-485.75 349.62,-481.79 349.62,-477.83 349.62,-477.83 349.62,-469.92 349.62,-469.92 349.62,-465.96 353.58,-462 357.54,-462 357.54,-462 510.71,-462 510.71,-462 514.67,-462 518.62,-465.96 518.62,-469.92 518.62,-469.92 518.62,-477.83 518.62,-477.83 518.62,-481.79 514.67,-485.75 510.71,-485.75"/>
<text xml:space="preserve" text-anchor="middle" x="434.12" y="-468.45" font-family="Arial" font-size="14.00" fill="#c6c5fe">pages/AdminAuditLog.jsx</text>
</g>
<!-- App.jsx&#45;&gt;pages/AdminAuditLog.jsx -->
<g id="edge3" class="edge">
<title>App.jsx&#45;&gt;pages/AdminAuditLog.jsx</title>
<path fill="none" stroke="#757575" d="M245.27,-402.09C257.85,-416.71 281.04,-440.74 306.5,-452.88 316.46,-457.62 327.3,-461.31 338.31,-464.19"/>
<polygon fill="#757575" stroke="#757575" points="337.34,-467.56 347.88,-466.45 338.95,-460.74 337.34,-467.56"/>
</g>
<!-- pages/AdminDashboard.jsx -->
<g id="node5" class="node">
<title>pages/AdminDashboard.jsx</title>
<path fill="none" stroke="#c6c5fe" d="M517.08,-737.75C517.08,-737.75 351.17,-737.75 351.17,-737.75 347.21,-737.75 343.25,-733.79 343.25,-729.83 343.25,-729.83 343.25,-721.92 343.25,-721.92 343.25,-717.96 347.21,-714 351.17,-714 351.17,-714 517.08,-714 517.08,-714 521.04,-714 525,-717.96 525,-721.92 525,-721.92 525,-729.83 525,-729.83 525,-733.79 521.04,-737.75 517.08,-737.75"/>
<text xml:space="preserve" text-anchor="middle" x="434.12" y="-720.45" font-family="Arial" font-size="14.00" fill="#c6c5fe">pages/AdminDashboard.jsx</text>
</g>
<!-- App.jsx&#45;&gt;pages/AdminDashboard.jsx -->
<g id="edge4" class="edge">
<title>App.jsx&#45;&gt;pages/AdminDashboard.jsx</title>
<path fill="none" stroke="#757575" d="M236.35,-402.09C240.81,-454.79 261.04,-661.97 306.5,-704.88 313.86,-711.82 322.59,-716.96 331.98,-720.72"/>
<polygon fill="#757575" stroke="#757575" points="330.79,-724.02 341.38,-723.92 333.04,-717.39 330.79,-724.02"/>
</g>
<!-- pages/AdminDocumentReview.jsx -->
<g id="node6" class="node">
<title>pages/AdminDocumentReview.jsx</title>
<path fill="none" stroke="#c6c5fe" d="M536.96,-443.75C536.96,-443.75 331.29,-443.75 331.29,-443.75 327.33,-443.75 323.38,-439.79 323.38,-435.83 323.38,-435.83 323.38,-427.92 323.38,-427.92 323.38,-423.96 327.33,-420 331.29,-420 331.29,-420 536.96,-420 536.96,-420 540.92,-420 544.88,-423.96 544.88,-427.92 544.88,-427.92 544.88,-435.83 544.88,-435.83 544.88,-439.79 540.92,-443.75 536.96,-443.75"/>
<text xml:space="preserve" text-anchor="middle" x="434.12" y="-426.45" font-family="Arial" font-size="14.00" fill="#c6c5fe">pages/AdminDocumentReview.jsx</text>
</g>
<!-- App.jsx&#45;&gt;pages/AdminDocumentReview.jsx -->
<g id="edge5" class="edge">
<title>App.jsx&#45;&gt;pages/AdminDocumentReview.jsx</title>
<path fill="none" stroke="#757575" d="M264.92,-399.48C277.62,-403.38 292.7,-407.71 306.5,-410.88 316.82,-413.24 327.66,-415.46 338.49,-417.49"/>
<polygon fill="#757575" stroke="#757575" points="337.79,-420.92 348.25,-419.27 339.04,-414.03 337.79,-420.92"/>
</g>
<!-- pages/AdminRegistrations.jsx -->
<g id="node7" class="node">
<title>pages/AdminRegistrations.jsx</title>
<path fill="none" stroke="#c6c5fe" d="M523.46,-401.75C523.46,-401.75 344.79,-401.75 344.79,-401.75 340.83,-401.75 336.88,-397.79 336.88,-393.83 336.88,-393.83 336.88,-385.92 336.88,-385.92 336.88,-381.96 340.83,-378 344.79,-378 344.79,-378 523.46,-378 523.46,-378 527.42,-378 531.38,-381.96 531.38,-385.92 531.38,-385.92 531.38,-393.83 531.38,-393.83 531.38,-397.79 527.42,-401.75 523.46,-401.75"/>
<text xml:space="preserve" text-anchor="middle" x="434.12" y="-384.45" font-family="Arial" font-size="14.00" fill="#c6c5fe">pages/AdminRegistrations.jsx</text>
</g>
<!-- App.jsx&#45;&gt;pages/AdminRegistrations.jsx -->
<g id="edge6" class="edge">
<title>App.jsx&#45;&gt;pages/AdminRegistrations.jsx</title>
<path fill="none" stroke="#757575" d="M264.98,-389.88C281.48,-389.88 303.15,-389.88 325.42,-389.88"/>
<polygon fill="#757575" stroke="#757575" points="325.23,-393.38 335.23,-389.88 325.23,-386.38 325.23,-393.38"/>
</g>
<!-- pages/CheckEmail.jsx -->
<g id="node8" class="node">
<title>pages/CheckEmail.jsx</title>
<path fill="none" stroke="#c6c5fe" d="M500.96,-695.75C500.96,-695.75 367.29,-695.75 367.29,-695.75 363.33,-695.75 359.38,-691.79 359.38,-687.83 359.38,-687.83 359.38,-679.92 359.38,-679.92 359.38,-675.96 363.33,-672 367.29,-672 367.29,-672 500.96,-672 500.96,-672 504.92,-672 508.88,-675.96 508.88,-679.92 508.88,-679.92 508.88,-687.83 508.88,-687.83 508.88,-691.79 504.92,-695.75 500.96,-695.75"/>
<text xml:space="preserve" text-anchor="middle" x="434.12" y="-678.45" font-family="Arial" font-size="14.00" fill="#c6c5fe">pages/CheckEmail.jsx</text>
</g>
<!-- App.jsx&#45;&gt;pages/CheckEmail.jsx -->
<g id="edge7" class="edge">
<title>App.jsx&#45;&gt;pages/CheckEmail.jsx</title>
<path fill="none" stroke="#757575" d="M236.8,-402.07C242.68,-450.24 266.63,-626.46 306.5,-662.88 318.02,-673.4 332.71,-679.73 347.97,-683.39"/>
<polygon fill="#757575" stroke="#757575" points="347.17,-686.8 357.66,-685.3 348.53,-679.93 347.17,-686.8"/>
</g>
<!-- pages/Dashboard.jsx -->
<g id="node9" class="node">
<title>pages/Dashboard.jsx</title>
<path fill="none" stroke="#c6c5fe" d="M497.58,-23.75C497.58,-23.75 370.67,-23.75 370.67,-23.75 366.71,-23.75 362.75,-19.79 362.75,-15.83 362.75,-15.83 362.75,-7.92 362.75,-7.92 362.75,-3.96 366.71,0 370.67,0 370.67,0 497.58,0 497.58,0 501.54,0 505.5,-3.96 505.5,-7.92 505.5,-7.92 505.5,-15.83 505.5,-15.83 505.5,-19.79 501.54,-23.75 497.58,-23.75"/>
<text xml:space="preserve" text-anchor="middle" x="434.12" y="-6.45" font-family="Arial" font-size="14.00" fill="#c6c5fe">pages/Dashboard.jsx</text>
</g>
<!-- App.jsx&#45;&gt;pages/Dashboard.jsx -->
<g id="edge8" class="edge">
<title>App.jsx&#45;&gt;pages/Dashboard.jsx</title>
<path fill="none" stroke="#757575" d="M262.27,-377.59C265.47,-375.12 268.36,-372.23 270.5,-368.88 310.98,-305.63 254.95,-87.48 306.5,-32.88 318.3,-20.38 334.47,-13.51 351.32,-10"/>
<polygon fill="#757575" stroke="#757575" points="351.67,-13.49 360.96,-8.41 350.52,-6.59 351.67,-13.49"/>
</g>
<!-- pages/EmailConfirmed.jsx -->
<g id="node10" class="node">
<title>pages/EmailConfirmed.jsx</title>
<path fill="none" stroke="#c6c5fe" d="M513.33,-107.75C513.33,-107.75 354.92,-107.75 354.92,-107.75 350.96,-107.75 347,-103.79 347,-99.83 347,-99.83 347,-91.92 347,-91.92 347,-87.96 350.96,-84 354.92,-84 354.92,-84 513.33,-84 513.33,-84 517.29,-84 521.25,-87.96 521.25,-91.92 521.25,-91.92 521.25,-99.83 521.25,-99.83 521.25,-103.79 517.29,-107.75 513.33,-107.75"/>
<text xml:space="preserve" text-anchor="middle" x="434.12" y="-90.45" font-family="Arial" font-size="14.00" fill="#c6c5fe">pages/EmailConfirmed.jsx</text>
</g>
<!-- App.jsx&#45;&gt;pages/EmailConfirmed.jsx -->
<g id="edge9" class="edge">
<title>App.jsx&#45;&gt;pages/EmailConfirmed.jsx</title>
<path fill="none" stroke="#757575" d="M262.16,-377.52C265.38,-375.06 268.3,-372.19 270.5,-368.88 333.16,-274.67 227.4,-197.77 306.5,-116.88 314.71,-108.48 324.89,-102.66 335.9,-98.69"/>
<polygon fill="#757575" stroke="#757575" points="336.66,-102.12 345.22,-95.88 334.64,-95.42 336.66,-102.12"/>
</g>
<!-- pages/Login.jsx -->
<g id="node11" class="node">
<title>pages/Login.jsx</title>
<path fill="none" stroke="#c6c5fe" d="M481.08,-65.75C481.08,-65.75 387.17,-65.75 387.17,-65.75 383.21,-65.75 379.25,-61.79 379.25,-57.83 379.25,-57.83 379.25,-49.92 379.25,-49.92 379.25,-45.96 383.21,-42 387.17,-42 387.17,-42 481.08,-42 481.08,-42 485.04,-42 489,-45.96 489,-49.92 489,-49.92 489,-57.83 489,-57.83 489,-61.79 485.04,-65.75 481.08,-65.75"/>
<text xml:space="preserve" text-anchor="middle" x="434.12" y="-48.45" font-family="Arial" font-size="14.00" fill="#c6c5fe">pages/Login.jsx</text>
</g>
<!-- App.jsx&#45;&gt;pages/Login.jsx -->
<g id="edge10" class="edge">
<title>App.jsx&#45;&gt;pages/Login.jsx</title>
<path fill="none" stroke="#757575" d="M262.22,-377.56C265.43,-375.09 268.33,-372.21 270.5,-368.88 342.3,-258.54 215.41,-169.92 306.5,-74.88 322.12,-58.57 345.22,-51.89 367.42,-49.76"/>
<polygon fill="#757575" stroke="#757575" points="367.64,-53.25 377.4,-49.13 367.2,-46.26 367.64,-53.25"/>
</g>
<!-- pages/PayRegistration.jsx -->
<g id="node12" class="node">
<title>pages/PayRegistration.jsx</title>
<path fill="none" stroke="#c6c5fe" d="M512.21,-233.75C512.21,-233.75 356.04,-233.75 356.04,-233.75 352.08,-233.75 348.12,-229.79 348.12,-225.83 348.12,-225.83 348.12,-217.92 348.12,-217.92 348.12,-213.96 352.08,-210 356.04,-210 356.04,-210 512.21,-210 512.21,-210 516.17,-210 520.12,-213.96 520.12,-217.92 520.12,-217.92 520.12,-225.83 520.12,-225.83 520.12,-229.79 516.17,-233.75 512.21,-233.75"/>
<text xml:space="preserve" text-anchor="middle" x="434.12" y="-216.45" font-family="Arial" font-size="14.00" fill="#c6c5fe">pages/PayRegistration.jsx</text>
</g>
<!-- App.jsx&#45;&gt;pages/PayRegistration.jsx -->
<g id="edge11" class="edge">
<title>App.jsx&#45;&gt;pages/PayRegistration.jsx</title>
<path fill="none" stroke="#757575" d="M261.05,-377.74C264.59,-375.2 267.9,-372.26 270.5,-368.88 305.98,-322.69 263.04,-281.65 306.5,-242.88 315.26,-235.06 325.77,-229.58 336.95,-225.79"/>
<polygon fill="#757575" stroke="#757575" points="337.73,-229.2 346.38,-223.08 335.8,-222.48 337.73,-229.2"/>
</g>
<!-- pages/PaymentFailure.jsx -->
<g id="node13" class="node">
<title>pages/PaymentFailure.jsx</title>
<path fill="none" stroke="#cfffac" d="M512.21,-149.75C512.21,-149.75 356.04,-149.75 356.04,-149.75 352.08,-149.75 348.12,-145.79 348.12,-141.83 348.12,-141.83 348.12,-133.92 348.12,-133.92 348.12,-129.96 352.08,-126 356.04,-126 356.04,-126 512.21,-126 512.21,-126 516.17,-126 520.12,-129.96 520.12,-133.92 520.12,-133.92 520.12,-141.83 520.12,-141.83 520.12,-145.79 516.17,-149.75 512.21,-149.75"/>
<text xml:space="preserve" text-anchor="middle" x="434.12" y="-132.45" font-family="Arial" font-size="14.00" fill="#cfffac">pages/PaymentFailure.jsx</text>
</g>
<!-- App.jsx&#45;&gt;pages/PaymentFailure.jsx -->
<g id="edge12" class="edge">
<title>App.jsx&#45;&gt;pages/PaymentFailure.jsx</title>
<path fill="none" stroke="#757575" d="M261.73,-377.72C265.09,-375.21 268.17,-372.27 270.5,-368.88 324.04,-290.77 239.36,-225.65 306.5,-158.88 315,-150.42 325.52,-144.59 336.84,-140.66"/>
<polygon fill="#757575" stroke="#757575" points="337.81,-144.02 346.44,-137.87 335.86,-137.3 337.81,-144.02"/>
</g>
<!-- pages/PaymentSuccess.jsx -->
<g id="node14" class="node">
<title>pages/PaymentSuccess.jsx</title>
<path fill="none" stroke="#c6c5fe" d="M517.08,-191.75C517.08,-191.75 351.17,-191.75 351.17,-191.75 347.21,-191.75 343.25,-187.79 343.25,-183.83 343.25,-183.83 343.25,-175.92 343.25,-175.92 343.25,-171.96 347.21,-168 351.17,-168 351.17,-168 517.08,-168 517.08,-168 521.04,-168 525,-171.96 525,-175.92 525,-175.92 525,-183.83 525,-183.83 525,-187.79 521.04,-191.75 517.08,-191.75"/>
<text xml:space="preserve" text-anchor="middle" x="434.12" y="-174.45" font-family="Arial" font-size="14.00" fill="#c6c5fe">pages/PaymentSuccess.jsx</text>
</g>
<!-- App.jsx&#45;&gt;pages/PaymentSuccess.jsx -->
<g id="edge13" class="edge">
<title>App.jsx&#45;&gt;pages/PaymentSuccess.jsx</title>
<path fill="none" stroke="#757575" d="M261.6,-377.63C264.99,-375.14 268.1,-372.23 270.5,-368.88 314.96,-306.79 251.26,-253.59 306.5,-200.88 313.96,-193.76 322.86,-188.53 332.43,-184.73"/>
<polygon fill="#757575" stroke="#757575" points="333.25,-188.15 341.61,-181.64 331.02,-181.51 333.25,-188.15"/>
</g>
<!-- pages/PendingApproval.jsx -->
<g id="node15" class="node">
<title>pages/PendingApproval.jsx</title>
<path fill="none" stroke="#c6c5fe" d="M770.83,-776.75C770.83,-776.75 607.17,-776.75 607.17,-776.75 603.21,-776.75 599.25,-772.79 599.25,-768.83 599.25,-768.83 599.25,-760.92 599.25,-760.92 599.25,-756.96 603.21,-753 607.17,-753 607.17,-753 770.83,-753 770.83,-753 774.79,-753 778.75,-756.96 778.75,-760.92 778.75,-760.92 778.75,-768.83 778.75,-768.83 778.75,-772.79 774.79,-776.75 770.83,-776.75"/>
<text xml:space="preserve" text-anchor="middle" x="689" y="-759.45" font-family="Arial" font-size="14.00" fill="#c6c5fe">pages/PendingApproval.jsx</text>
</g>
<!-- App.jsx&#45;&gt;pages/PendingApproval.jsx -->
<g id="edge14" class="edge">
<title>App.jsx&#45;&gt;pages/PendingApproval.jsx</title>
<path fill="none" stroke="#757575" d="M235.86,-401.89C238.44,-458.8 252.49,-700.39 306.5,-746.88 399.26,-826.71 556.57,-800.78 637.13,-780.1"/>
<polygon fill="#757575" stroke="#757575" points="637.74,-783.56 646.52,-777.61 635.95,-776.79 637.74,-783.56"/>
</g>
<!-- pages/Register.jsx -->
<g id="node16" class="node">
<title>pages/Register.jsx</title>
<path fill="none" stroke="#c6c5fe" d="M489.33,-527.75C489.33,-527.75 378.92,-527.75 378.92,-527.75 374.96,-527.75 371,-523.79 371,-519.83 371,-519.83 371,-511.92 371,-511.92 371,-507.96 374.96,-504 378.92,-504 378.92,-504 489.33,-504 489.33,-504 493.29,-504 497.25,-507.96 497.25,-511.92 497.25,-511.92 497.25,-519.83 497.25,-519.83 497.25,-523.79 493.29,-527.75 489.33,-527.75"/>
<text xml:space="preserve" text-anchor="middle" x="434.12" y="-510.45" font-family="Arial" font-size="14.00" fill="#c6c5fe">pages/Register.jsx</text>
</g>
<!-- App.jsx&#45;&gt;pages/Register.jsx -->
<g id="edge15" class="edge">
<title>App.jsx&#45;&gt;pages/Register.jsx</title>
<path fill="none" stroke="#757575" d="M239.81,-402C248.7,-424.41 270.91,-472.07 306.5,-494.88 322.12,-504.88 340.96,-510.6 359.29,-513.76"/>
<polygon fill="#757575" stroke="#757575" points="358.7,-517.21 369.1,-515.2 359.71,-510.29 358.7,-517.21"/>
</g>
<!-- pages/RegistrationRejected.jsx -->
<g id="node17" class="node">
<title>pages/RegistrationRejected.jsx</title>
<path fill="none" stroke="#c6c5fe" d="M527.21,-653.75C527.21,-653.75 341.04,-653.75 341.04,-653.75 337.08,-653.75 333.12,-649.79 333.12,-645.83 333.12,-645.83 333.12,-637.92 333.12,-637.92 333.12,-633.96 337.08,-630 341.04,-630 341.04,-630 527.21,-630 527.21,-630 531.17,-630 535.12,-633.96 535.12,-637.92 535.12,-637.92 535.12,-645.83 535.12,-645.83 535.12,-649.79 531.17,-653.75 527.21,-653.75"/>
<text xml:space="preserve" text-anchor="middle" x="434.12" y="-636.45" font-family="Arial" font-size="14.00" fill="#c6c5fe">pages/RegistrationRejected.jsx</text>
</g>
<!-- App.jsx&#45;&gt;pages/RegistrationRejected.jsx -->
<g id="edge16" class="edge">
<title>App.jsx&#45;&gt;pages/RegistrationRejected.jsx</title>
<path fill="none" stroke="#757575" d="M235.03,-401.99C234.63,-440.63 239.04,-561.92 306.5,-620.88 311.44,-625.2 316.93,-628.8 322.76,-631.8"/>
<polygon fill="#757575" stroke="#757575" points="320.93,-634.81 331.49,-635.67 323.77,-628.42 320.93,-634.81"/>
</g>
<!-- pages/RegistrationWizard.jsx -->
<g id="node18" class="node">
<title>pages/RegistrationWizard.jsx</title>
<path fill="none" stroke="#c6c5fe" d="M521.96,-611.75C521.96,-611.75 346.29,-611.75 346.29,-611.75 342.33,-611.75 338.38,-607.79 338.38,-603.83 338.38,-603.83 338.38,-595.92 338.38,-595.92 338.38,-591.96 342.33,-588 346.29,-588 346.29,-588 521.96,-588 521.96,-588 525.92,-588 529.88,-591.96 529.88,-595.92 529.88,-595.92 529.88,-603.83 529.88,-603.83 529.88,-607.79 525.92,-611.75 521.96,-611.75"/>
<text xml:space="preserve" text-anchor="middle" x="434.12" y="-594.45" font-family="Arial" font-size="14.00" fill="#c6c5fe">pages/RegistrationWizard.jsx</text>
</g>
<!-- App.jsx&#45;&gt;pages/RegistrationWizard.jsx -->
<g id="edge17" class="edge">
<title>App.jsx&#45;&gt;pages/RegistrationWizard.jsx</title>
<path fill="none" stroke="#757575" d="M235.96,-401.94C238.3,-435.83 249.88,-532.37 306.5,-578.88 312.83,-584.08 319.96,-588.22 327.52,-591.49"/>
<polygon fill="#757575" stroke="#757575" points="326.06,-594.68 336.66,-594.92 328.52,-588.13 326.06,-594.68"/>
</g>
<!-- supabaseClient.js -->
<g id="node22" class="node">
<title>supabaseClient.js</title>
<path fill="none" stroke="#cfffac" d="M742.33,-359.75C742.33,-359.75 635.67,-359.75 635.67,-359.75 631.71,-359.75 627.75,-355.79 627.75,-351.83 627.75,-351.83 627.75,-343.92 627.75,-343.92 627.75,-339.96 631.71,-336 635.67,-336 635.67,-336 742.33,-336 742.33,-336 746.29,-336 750.25,-339.96 750.25,-343.92 750.25,-343.92 750.25,-351.83 750.25,-351.83 750.25,-355.79 746.29,-359.75 742.33,-359.75"/>
<text xml:space="preserve" text-anchor="middle" x="689" y="-342.45" font-family="Arial" font-size="14.00" fill="#cfffac">supabaseClient.js</text>
</g>
<!-- components/Layout.jsx&#45;&gt;supabaseClient.js -->
<g id="edge19" class="edge">
<title>components/Layout.jsx&#45;&gt;supabaseClient.js</title>
<path fill="none" stroke="#757575" d="M509.45,-318.19C526.62,-321.04 544.82,-324.06 561.75,-326.88 579.36,-329.8 598.36,-332.96 616.14,-335.92"/>
<polygon fill="#757575" stroke="#757575" points="615.39,-339.34 625.82,-337.53 616.53,-332.43 615.39,-339.34"/>
</g>
<!-- components/ProtectedRoute.jsx&#45;&gt;supabaseClient.js -->
<g id="edge20" class="edge">
<title>components/ProtectedRoute.jsx&#45;&gt;supabaseClient.js</title>
<path fill="none" stroke="#757575" d="M528.9,-276.18C540.09,-278.6 551.26,-281.47 561.75,-284.88 596.41,-296.12 633.42,-315.56 658.34,-329.89"/>
<polygon fill="#757575" stroke="#757575" points="656.53,-332.88 666.93,-334.91 660.07,-326.84 656.53,-332.88"/>
</g>
<!-- components/GoldButton.jsx -->
<g id="node20" class="node">
<title>components/GoldButton.jsx</title>
<path fill="none" stroke="#c6c5fe" d="M772.33,-492.75C772.33,-492.75 605.67,-492.75 605.67,-492.75 601.71,-492.75 597.75,-488.79 597.75,-484.83 597.75,-484.83 597.75,-476.92 597.75,-476.92 597.75,-472.96 601.71,-469 605.67,-469 605.67,-469 772.33,-469 772.33,-469 776.29,-469 780.25,-472.96 780.25,-476.92 780.25,-476.92 780.25,-484.83 780.25,-484.83 780.25,-488.79 776.29,-492.75 772.33,-492.75"/>
<text xml:space="preserve" text-anchor="middle" x="689" y="-475.45" font-family="Arial" font-size="14.00" fill="#c6c5fe">components/GoldButton.jsx</text>
</g>
<!-- pages/AdminAuditLog.jsx&#45;&gt;components/GoldButton.jsx -->
<g id="edge23" class="edge">
<title>pages/AdminAuditLog.jsx&#45;&gt;components/GoldButton.jsx</title>
<path fill="none" stroke="#757575" d="M518.98,-476.2C540.5,-476.79 563.89,-477.44 586.21,-478.06"/>
<polygon fill="#757575" stroke="#757575" points="585.81,-481.55 595.9,-478.33 586,-474.55 585.81,-481.55"/>
</g>
<!-- pages/AdminAuditLog.jsx&#45;&gt;supabaseClient.js -->
<g id="edge24" class="edge">
<title>pages/AdminAuditLog.jsx&#45;&gt;supabaseClient.js</title>
<path fill="none" stroke="#757575" d="M519.07,-466.38C533.71,-463.29 548.48,-458.95 561.75,-452.88 606.08,-432.59 647.52,-392.56 670.15,-368.21"/>
<polygon fill="#757575" stroke="#757575" points="672.45,-370.88 676.59,-361.13 667.27,-366.17 672.45,-370.88"/>
</g>
<!-- pages/AdminDashboard.jsx&#45;&gt;components/GoldButton.jsx -->
<g id="edge25" class="edge">
<title>pages/AdminDashboard.jsx&#45;&gt;components/GoldButton.jsx</title>
<path fill="none" stroke="#757575" d="M525.21,-721.19C538.24,-717.69 550.89,-712.48 561.75,-704.88 633.24,-654.8 669.18,-550.55 682.16,-504.09"/>
<polygon fill="#757575" stroke="#757575" points="685.51,-505.12 684.71,-494.56 678.75,-503.31 685.51,-505.12"/>
</g>
<!-- theme.js -->
<g id="node21" class="node">
<title>theme.js</title>
<path fill="none" stroke="#cfffac" d="M876.08,-570.75C876.08,-570.75 824.17,-570.75 824.17,-570.75 820.21,-570.75 816.25,-566.79 816.25,-562.83 816.25,-562.83 816.25,-554.92 816.25,-554.92 816.25,-550.96 820.21,-547 824.17,-547 824.17,-547 876.08,-547 876.08,-547 880.04,-547 884,-550.96 884,-554.92 884,-554.92 884,-562.83 884,-562.83 884,-566.79 880.04,-570.75 876.08,-570.75"/>
<text xml:space="preserve" text-anchor="middle" x="850.12" y="-553.45" font-family="Arial" font-size="14.00" fill="#cfffac">theme.js</text>
</g>
<!-- pages/AdminDashboard.jsx&#45;&gt;theme.js -->
<g id="edge26" class="edge">
<title>pages/AdminDashboard.jsx&#45;&gt;theme.js</title>
<path fill="none" stroke="#757575" d="M525.35,-729.9C599.62,-728.92 704.62,-717.26 780.25,-666.88 811.09,-646.33 830.96,-606.78 841.08,-581.67"/>
<polygon fill="#757575" stroke="#757575" points="844.33,-582.96 844.62,-572.37 837.79,-580.47 844.33,-582.96"/>
</g>
<!-- pages/AdminDocumentReview.jsx&#45;&gt;components/GoldButton.jsx -->
<g id="edge27" class="edge">
<title>pages/AdminDocumentReview.jsx&#45;&gt;components/GoldButton.jsx</title>
<path fill="none" stroke="#757575" d="M513.6,-444.21C529.56,-446.91 546.22,-449.87 561.75,-452.88 582.11,-456.82 604.22,-461.56 624.16,-466.02"/>
<polygon fill="#757575" stroke="#757575" points="623.3,-469.41 633.83,-468.19 624.84,-462.58 623.3,-469.41"/>
</g>
<!-- pages/AdminDocumentReview.jsx&#45;&gt;supabaseClient.js -->
<g id="edge28" class="edge">
<title>pages/AdminDocumentReview.jsx&#45;&gt;supabaseClient.js</title>
<path fill="none" stroke="#757575" d="M528.9,-419.57C540.09,-417.15 551.26,-414.28 561.75,-410.88 596.41,-399.63 633.42,-380.19 658.34,-365.86"/>
<polygon fill="#757575" stroke="#757575" points="660.07,-368.91 666.93,-360.84 656.53,-362.87 660.07,-368.91"/>
</g>
<!-- pages/AdminRegistrations.jsx&#45;&gt;components/GoldButton.jsx -->
<g id="edge31" class="edge">
<title>pages/AdminRegistrations.jsx&#45;&gt;components/GoldButton.jsx</title>
<path fill="none" stroke="#757575" d="M531.08,-402.2C541.56,-404.6 551.97,-407.47 561.75,-410.88 598.15,-423.56 636.38,-446.27 661.11,-462.38"/>
<polygon fill="#757575" stroke="#757575" points="658.99,-465.17 669.26,-467.78 662.86,-459.34 658.99,-465.17"/>
</g>
<!-- pages/AdminRegistrations.jsx&#45;&gt;supabaseClient.js -->
<g id="edge32" class="edge">
<title>pages/AdminRegistrations.jsx&#45;&gt;supabaseClient.js</title>
<path fill="none" stroke="#757575" d="M509.45,-377.56C526.62,-374.71 544.82,-371.69 561.75,-368.88 579.36,-365.95 598.36,-362.79 616.14,-359.83"/>
<polygon fill="#757575" stroke="#757575" points="616.53,-363.32 625.82,-358.22 615.39,-356.41 616.53,-363.32"/>
</g>
<!-- pages/CheckEmail.jsx&#45;&gt;components/GoldButton.jsx -->
<g id="edge33" class="edge">
<title>pages/CheckEmail.jsx&#45;&gt;components/GoldButton.jsx</title>
<path fill="none" stroke="#757575" d="M509.37,-681.56C527.54,-678.38 546.22,-672.71 561.75,-662.88 623.13,-624.02 662.67,-543.41 679.18,-503.82"/>
<polygon fill="#757575" stroke="#757575" points="682.42,-505.15 682.91,-494.56 675.93,-502.53 682.42,-505.15"/>
</g>
<!-- pages/CheckEmail.jsx&#45;&gt;theme.js -->
<g id="edge34" class="edge">
<title>pages/CheckEmail.jsx&#45;&gt;theme.js</title>
<path fill="none" stroke="#757575" d="M509.23,-684.81C582.03,-682.83 694.36,-671.89 780.25,-627.88 802.08,-616.69 821.27,-596.05 833.81,-580.25"/>
<polygon fill="#757575" stroke="#757575" points="836.53,-582.45 839.8,-572.37 830.96,-578.21 836.53,-582.45"/>
</g>
<!-- pages/Dashboard.jsx&#45;&gt;theme.js -->
<g id="edge36" class="edge">
<title>pages/Dashboard.jsx&#45;&gt;theme.js</title>
<path fill="none" stroke="#757575" d="M505.72,-4.01C584.7,0.48 710.68,-6.02 780.25,-80.88 842.61,-147.98 848.69,-448.8 849.14,-535.45"/>
<polygon fill="#757575" stroke="#757575" points="845.64,-535.33 849.17,-545.32 852.64,-535.31 845.64,-535.33"/>
</g>
<!-- pages/Dashboard.jsx&#45;&gt;supabaseClient.js -->
<g id="edge35" class="edge">
<title>pages/Dashboard.jsx&#45;&gt;supabaseClient.js</title>
<path fill="none" stroke="#757575" d="M505.75,-11.02C525.6,-13.92 546.03,-20.24 561.75,-32.88 655.88,-108.52 680.21,-264.96 686.17,-324.33"/>
<polygon fill="#757575" stroke="#757575" points="682.68,-324.61 687.07,-334.25 689.65,-323.97 682.68,-324.61"/>
</g>
<!-- pages/EmailConfirmed.jsx&#45;&gt;components/GoldButton.jsx -->
<g id="edge37" class="edge">
<title>pages/EmailConfirmed.jsx&#45;&gt;components/GoldButton.jsx</title>
<path fill="none" stroke="#757575" d="M521.58,-95.44C536.64,-99.19 550.92,-105.8 561.75,-116.88 640.85,-197.77 552.64,-265.12 597.75,-368.88 613.68,-405.51 644.94,-440.09 666.15,-460.88"/>
<polygon fill="#757575" stroke="#757575" points="663.54,-463.23 673.18,-467.61 668.38,-458.17 663.54,-463.23"/>
</g>
<!-- pages/EmailConfirmed.jsx&#45;&gt;theme.js -->
<g id="edge39" class="edge">
<title>pages/EmailConfirmed.jsx&#45;&gt;theme.js</title>
<path fill="none" stroke="#757575" d="M521.75,-98.37C536.18,-101.97 550.2,-107.77 561.75,-116.88 593.98,-142.26 571.78,-170.11 597.75,-201.88 659.98,-277.98 722.38,-247.4 780.25,-326.88 827.85,-392.24 842.81,-490.44 847.3,-535.17"/>
<polygon fill="#757575" stroke="#757575" points="843.8,-535.38 848.19,-545.03 850.78,-534.75 843.8,-535.38"/>
</g>
<!-- pages/EmailConfirmed.jsx&#45;&gt;supabaseClient.js -->
<g id="edge38" class="edge">
<title>pages/EmailConfirmed.jsx&#45;&gt;supabaseClient.js</title>
<path fill="none" stroke="#757575" d="M521.73,-96.11C536.6,-99.84 550.77,-106.27 561.75,-116.88 619.82,-172.93 550.87,-229.17 597.75,-294.88 608.94,-310.55 626.33,-322.34 642.88,-330.76"/>
<polygon fill="#757575" stroke="#757575" points="641.1,-333.79 651.64,-334.93 644.11,-327.47 641.1,-333.79"/>
</g>
<!-- pages/Login.jsx&#45;&gt;components/GoldButton.jsx -->
<g id="edge40" class="edge">
<title>pages/Login.jsx&#45;&gt;components/GoldButton.jsx</title>
<path fill="none" stroke="#757575" d="M489.34,-49.03C514.75,-49.85 543.4,-55.73 561.75,-74.88 607.29,-122.4 572.11,-308.25 597.75,-368.88 613.31,-405.67 644.66,-440.21 665.99,-460.95"/>
<polygon fill="#757575" stroke="#757575" points="663.41,-463.32 673.08,-467.66 668.23,-458.24 663.41,-463.32"/>
</g>
<!-- pages/Login.jsx&#45;&gt;theme.js -->
<g id="edge42" class="edge">
<title>pages/Login.jsx&#45;&gt;theme.js</title>
<path fill="none" stroke="#757575" d="M489.37,-59.81C568.09,-71.61 712.03,-105.79 780.25,-201.88 818.95,-256.38 840.76,-465.03 847.13,-535.48"/>
<polygon fill="#757575" stroke="#757575" points="843.62,-535.45 847.98,-545.11 850.59,-534.84 843.62,-535.45"/>
</g>
<!-- pages/Login.jsx&#45;&gt;supabaseClient.js -->
<g id="edge41" class="edge">
<title>pages/Login.jsx&#45;&gt;supabaseClient.js</title>
<path fill="none" stroke="#757575" d="M489.39,-50.36C514.19,-51.62 542.31,-57.5 561.75,-74.88 605.49,-113.98 574.1,-148.19 597.75,-201.88 618.51,-248.99 652.36,-299.02 672.17,-326.56"/>
<polygon fill="#757575" stroke="#757575" points="669.18,-328.39 677.89,-334.42 674.84,-324.27 669.18,-328.39"/>
</g>
<!-- pages/PayRegistration.jsx&#45;&gt;supabaseClient.js -->
<g id="edge43" class="edge">
<title>pages/PayRegistration.jsx&#45;&gt;supabaseClient.js</title>
<path fill="none" stroke="#757575" d="M520.31,-226.4C534.89,-229.79 549.33,-235 561.75,-242.88 585.49,-257.92 577.15,-275.75 597.75,-294.88 613.23,-309.24 633.25,-321.48 650.5,-330.57"/>
<polygon fill="#757575" stroke="#757575" points="648.43,-333.45 658.93,-334.86 651.61,-327.21 648.43,-333.45"/>
</g>
<!-- pages/PaymentSuccess.jsx&#45;&gt;supabaseClient.js -->
<g id="edge44" class="edge">
<title>pages/PaymentSuccess.jsx&#45;&gt;supabaseClient.js</title>
<path fill="none" stroke="#757575" d="M525.28,-182.9C538.52,-186.59 551.22,-192.28 561.75,-200.88 596.4,-229.17 568.83,-260.74 597.75,-294.88 610.69,-310.15 629.2,-322.09 646.09,-330.74"/>
<polygon fill="#757575" stroke="#757575" points="644.45,-333.83 654.97,-335.04 647.5,-327.53 644.45,-333.83"/>
</g>
<!-- pages/PendingApproval.jsx&#45;&gt;theme.js -->
<g id="edge45" class="edge">
<title>pages/PendingApproval.jsx&#45;&gt;theme.js</title>
<path fill="none" stroke="#757575" d="M755.05,-752.58C764.28,-748.7 773.06,-743.59 780.25,-736.88 825.29,-694.81 841.24,-619.92 846.59,-582.1"/>
<polygon fill="#757575" stroke="#757575" points="850.05,-582.66 847.84,-572.3 843.11,-581.78 850.05,-582.66"/>
</g>
<!-- pages/Register.jsx&#45;&gt;components/GoldButton.jsx -->
<g id="edge46" class="edge">
<title>pages/Register.jsx&#45;&gt;components/GoldButton.jsx</title>
<path fill="none" stroke="#757575" d="M497.63,-507.22C524.86,-503.46 557.45,-498.94 587.9,-494.73"/>
<polygon fill="#757575" stroke="#757575" points="588.09,-498.24 597.52,-493.4 587.13,-491.3 588.09,-498.24"/>
</g>
<!-- pages/Register.jsx&#45;&gt;theme.js -->
<g id="edge48" class="edge">
<title>pages/Register.jsx&#45;&gt;theme.js</title>
<path fill="none" stroke="#757575" d="M497.55,-522.36C582.03,-531.13 730.68,-546.57 804.68,-554.26"/>
<polygon fill="#757575" stroke="#757575" points="804.08,-557.72 814.39,-555.27 804.8,-550.75 804.08,-557.72"/>
</g>
<!-- pages/Register.jsx&#45;&gt;supabaseClient.js -->
<g id="edge47" class="edge">
<title>pages/Register.jsx&#45;&gt;supabaseClient.js</title>
<path fill="none" stroke="#757575" d="M497.57,-514.12C519,-511.35 542.43,-505.75 561.75,-494.88 575.87,-486.93 640.25,-407.67 671.24,-368.95"/>
<polygon fill="#757575" stroke="#757575" points="673.9,-371.23 677.4,-361.23 668.43,-366.86 673.9,-371.23"/>
</g>
<!-- pages/RegistrationRejected.jsx&#45;&gt;components/GoldButton.jsx -->
<g id="edge49" class="edge">
<title>pages/RegistrationRejected.jsx&#45;&gt;components/GoldButton.jsx</title>
<path fill="none" stroke="#757575" d="M535.43,-631.8C544.61,-628.95 553.54,-625.37 561.75,-620.88 613.6,-592.5 655.12,-534.49 675.09,-502.78"/>
<polygon fill="#757575" stroke="#757575" points="677.98,-504.76 680.22,-494.4 672.01,-501.1 677.98,-504.76"/>
</g>
<!-- pages/RegistrationRejected.jsx&#45;&gt;theme.js -->
<g id="edge51" class="edge">
<title>pages/RegistrationRejected.jsx&#45;&gt;theme.js</title>
<path fill="none" stroke="#757575" d="M535.4,-638.03C605.43,-633.07 700.3,-621.73 780.25,-595.88 794.38,-591.31 809,-583.89 821.13,-576.89"/>
<polygon fill="#757575" stroke="#757575" points="822.58,-580.1 829.36,-571.96 818.98,-574.1 822.58,-580.1"/>
</g>
<!-- pages/RegistrationRejected.jsx&#45;&gt;supabaseClient.js -->
<g id="edge50" class="edge">
<title>pages/RegistrationRejected.jsx&#45;&gt;supabaseClient.js</title>
<path fill="none" stroke="#757575" d="M535.61,-637.01C545.25,-633.22 554.22,-628 561.75,-620.88 615.02,-570.49 565.91,-525.93 597.75,-459.88 615.19,-423.69 646.34,-388.77 667.09,-367.8"/>
<polygon fill="#757575" stroke="#757575" points="669.29,-370.55 673.93,-361.03 664.36,-365.57 669.29,-370.55"/>
</g>
<!-- pages/RegistrationWizard.jsx&#45;&gt;components/GoldButton.jsx -->
<g id="edge55" class="edge">
<title>pages/RegistrationWizard.jsx&#45;&gt;components/GoldButton.jsx</title>
<path fill="none" stroke="#757575" d="M530.32,-589.38C541.15,-586.65 551.85,-583.2 561.75,-578.88 604.36,-560.24 645.28,-524.01 668.47,-501.2"/>
<polygon fill="#757575" stroke="#757575" points="670.81,-503.81 675.39,-494.25 665.85,-498.87 670.81,-503.81"/>
</g>
<!-- pages/RegistrationWizard.jsx&#45;&gt;theme.js -->
<g id="edge57" class="edge">
<title>pages/RegistrationWizard.jsx&#45;&gt;theme.js</title>
<path fill="none" stroke="#757575" d="M530.31,-595.57C599.81,-591.66 696.18,-584.66 780.25,-572.88 788.22,-571.76 796.65,-570.29 804.78,-568.72"/>
<polygon fill="#757575" stroke="#757575" points="805.39,-572.17 814.5,-566.76 804.01,-565.3 805.39,-572.17"/>
</g>
<!-- pages/RegistrationWizard.jsx&#45;&gt;supabaseClient.js -->
<g id="edge56" class="edge">
<title>pages/RegistrationWizard.jsx&#45;&gt;supabaseClient.js</title>
<path fill="none" stroke="#757575" d="M530.34,-596.12C541.85,-592.34 552.71,-586.82 561.75,-578.88 603.27,-542.41 571.94,-508.73 597.75,-459.88 616.43,-424.52 647.05,-389.57 667.37,-368.36"/>
<polygon fill="#757575" stroke="#757575" points="669.84,-370.83 674.32,-361.23 664.83,-365.94 669.84,-370.83"/>
</g>
<!-- api.js -->
<g id="node19" class="node">
<title>api.js</title>
<path fill="none" stroke="#cfffac" d="M100.21,-422.75C100.21,-422.75 62.04,-422.75 62.04,-422.75 58.08,-422.75 54.12,-418.79 54.12,-414.83 54.12,-414.83 54.12,-406.92 54.12,-406.92 54.12,-402.96 58.08,-399 62.04,-399 62.04,-399 100.21,-399 100.21,-399 104.17,-399 108.12,-402.96 108.12,-406.92 108.12,-406.92 108.12,-414.83 108.12,-414.83 108.12,-418.79 104.17,-422.75 100.21,-422.75"/>
<text xml:space="preserve" text-anchor="middle" x="81.12" y="-405.45" font-family="Arial" font-size="14.00" fill="#cfffac">api.js</text>
</g>
<!-- components/GoldButton.jsx&#45;&gt;theme.js -->
<g id="edge18" class="edge">
<title>components/GoldButton.jsx&#45;&gt;theme.js</title>
<path fill="none" stroke="#757575" d="M744.67,-493.14C756.71,-496.79 769.17,-501.33 780.25,-506.88 797.29,-515.39 814.39,-528.28 827.29,-539.09"/>
<polygon fill="#757575" stroke="#757575" points="824.88,-541.63 834.74,-545.51 829.45,-536.33 824.88,-541.63"/>
</g>
<!-- index.css -->
<g id="node23" class="node">
<title>index.css</title>
<path fill="none" stroke="#cfffac" d="M262.58,-359.75C262.58,-359.75 206.17,-359.75 206.17,-359.75 202.21,-359.75 198.25,-355.79 198.25,-351.83 198.25,-351.83 198.25,-343.92 198.25,-343.92 198.25,-339.96 202.21,-336 206.17,-336 206.17,-336 262.58,-336 262.58,-336 266.54,-336 270.5,-339.96 270.5,-343.92 270.5,-343.92 270.5,-351.83 270.5,-351.83 270.5,-355.79 266.54,-359.75 262.58,-359.75"/>
<text xml:space="preserve" text-anchor="middle" x="234.38" y="-342.45" font-family="Arial" font-size="14.00" fill="#cfffac">index.css</text>
</g>
<!-- main.jsx -->
<g id="node24" class="node">
<title>main.jsx</title>
<path fill="none" stroke="#c6c5fe" d="M106.33,-380.75C106.33,-380.75 55.92,-380.75 55.92,-380.75 51.96,-380.75 48,-376.79 48,-372.83 48,-372.83 48,-364.92 48,-364.92 48,-360.96 51.96,-357 55.92,-357 55.92,-357 106.33,-357 106.33,-357 110.29,-357 114.25,-360.96 114.25,-364.92 114.25,-364.92 114.25,-372.83 114.25,-372.83 114.25,-376.79 110.29,-380.75 106.33,-380.75"/>
<text xml:space="preserve" text-anchor="middle" x="81.12" y="-363.45" font-family="Arial" font-size="14.00" fill="#c6c5fe">main.jsx</text>
</g>
<!-- main.jsx&#45;&gt;App.jsx -->
<g id="edge21" class="edge">
<title>main.jsx&#45;&gt;App.jsx</title>
<path fill="none" stroke="#757575" d="M114.57,-373.38C137.43,-376.55 168.19,-380.83 192.69,-384.23"/>
<polygon fill="#757575" stroke="#757575" points="191.92,-387.65 202.3,-385.56 192.88,-380.72 191.92,-387.65"/>
</g>
<!-- main.jsx&#45;&gt;index.css -->
<g id="edge22" class="edge">
<title>main.jsx&#45;&gt;index.css</title>
<path fill="none" stroke="#757575" d="M114.57,-364.37C135.51,-361.46 163.09,-357.63 186.41,-354.4"/>
<polygon fill="#757575" stroke="#757575" points="186.89,-357.86 196.31,-353.02 185.93,-350.93 186.89,-357.86"/>
</g>
<!-- pages/AdminRegistrations &#45; Copy.jsx -->
<g id="node25" class="node">
<title>pages/AdminRegistrations &#45; Copy.jsx</title>
<path fill="none" stroke="#c6c5fe" d="M544.83,-359.75C544.83,-359.75 323.42,-359.75 323.42,-359.75 319.46,-359.75 315.5,-355.79 315.5,-351.83 315.5,-351.83 315.5,-343.92 315.5,-343.92 315.5,-339.96 319.46,-336 323.42,-336 323.42,-336 544.83,-336 544.83,-336 548.79,-336 552.75,-339.96 552.75,-343.92 552.75,-343.92 552.75,-351.83 552.75,-351.83 552.75,-355.79 548.79,-359.75 544.83,-359.75"/>
<text xml:space="preserve" text-anchor="middle" x="434.12" y="-342.45" font-family="Arial" font-size="14.00" fill="#c6c5fe">pages/AdminRegistrations &#45; Copy.jsx</text>
</g>
<!-- pages/AdminRegistrations &#45; Copy.jsx&#45;&gt;components/GoldButton.jsx -->
<g id="edge29" class="edge">
<title>pages/AdminRegistrations &#45; Copy.jsx&#45;&gt;components/GoldButton.jsx</title>
<path fill="none" stroke="#757575" d="M539.23,-360.2C547.01,-362.61 554.61,-365.47 561.75,-368.88 607.44,-390.67 648.97,-434.06 671.14,-459.97"/>
<polygon fill="#757575" stroke="#757575" points="668.33,-462.07 677.43,-467.49 673.7,-457.58 668.33,-462.07"/>
</g>
<!-- pages/AdminRegistrations &#45; Copy.jsx&#45;&gt;supabaseClient.js -->
<g id="edge30" class="edge">
<title>pages/AdminRegistrations &#45; Copy.jsx&#45;&gt;supabaseClient.js</title>
<path fill="none" stroke="#757575" d="M553.05,-347.88C574.58,-347.88 596.43,-347.88 616.11,-347.88"/>
<polygon fill="#757575" stroke="#757575" points="615.91,-351.38 625.91,-347.88 615.91,-344.38 615.91,-351.38"/>
</g>
<!-- pages/CancelPage.jsx -->
<g id="node26" class="node">
<title>pages/CancelPage.jsx</title>
<path fill="none" stroke="#cfffac" d="M148.33,-464.75C148.33,-464.75 13.92,-464.75 13.92,-464.75 9.96,-464.75 6,-460.79 6,-456.83 6,-456.83 6,-448.92 6,-448.92 6,-444.96 9.96,-441 13.92,-441 13.92,-441 148.33,-441 148.33,-441 152.29,-441 156.25,-444.96 156.25,-448.92 156.25,-448.92 156.25,-456.83 156.25,-456.83 156.25,-460.79 152.29,-464.75 148.33,-464.75"/>
<text xml:space="preserve" text-anchor="middle" x="81.12" y="-447.45" font-family="Arial" font-size="14.00" fill="#cfffac">pages/CancelPage.jsx</text>
</g>
<!-- pages/ErrorPage.jsx -->
<g id="node27" class="node">
<title>pages/ErrorPage.jsx</title>
<path fill="none" stroke="#cfffac" d="M142.33,-506.75C142.33,-506.75 19.92,-506.75 19.92,-506.75 15.96,-506.75 12,-502.79 12,-498.83 12,-498.83 12,-490.92 12,-490.92 12,-486.96 15.96,-483 19.92,-483 19.92,-483 142.33,-483 142.33,-483 146.29,-483 150.25,-486.96 150.25,-490.92 150.25,-490.92 150.25,-498.83 150.25,-498.83 150.25,-502.79 146.29,-506.75 142.33,-506.75"/>
<text xml:space="preserve" text-anchor="middle" x="81.12" y="-489.45" font-family="Arial" font-size="14.00" fill="#cfffac">pages/ErrorPage.jsx</text>
</g>
<!-- pages/PaymentPage.jsx -->
<g id="node28" class="node">
<title>pages/PaymentPage.jsx</title>
<path fill="none" stroke="#cfffac" d="M154.33,-548.75C154.33,-548.75 7.92,-548.75 7.92,-548.75 3.96,-548.75 0,-544.79 0,-540.83 0,-540.83 0,-532.92 0,-532.92 0,-528.96 3.96,-525 7.92,-525 7.92,-525 154.33,-525 154.33,-525 158.29,-525 162.25,-528.96 162.25,-532.92 162.25,-532.92 162.25,-540.83 162.25,-540.83 162.25,-544.79 158.29,-548.75 154.33,-548.75"/>
<text xml:space="preserve" text-anchor="middle" x="81.12" y="-531.45" font-family="Arial" font-size="14.00" fill="#cfffac">pages/PaymentPage.jsx</text>
</g>
<!-- pages/RegistrationWizard &#45; Copy (2).jsx -->
<g id="node29" class="node">
<title>pages/RegistrationWizard &#45; Copy (2).jsx</title>
<path fill="none" stroke="#c6c5fe" d="M553.83,-569.75C553.83,-569.75 314.42,-569.75 314.42,-569.75 310.46,-569.75 306.5,-565.79 306.5,-561.83 306.5,-561.83 306.5,-553.92 306.5,-553.92 306.5,-549.96 310.46,-546 314.42,-546 314.42,-546 553.83,-546 553.83,-546 557.79,-546 561.75,-549.96 561.75,-553.92 561.75,-553.92 561.75,-561.83 561.75,-561.83 561.75,-565.79 557.79,-569.75 553.83,-569.75"/>
<text xml:space="preserve" text-anchor="middle" x="434.12" y="-552.45" font-family="Arial" font-size="14.00" fill="#c6c5fe">pages/RegistrationWizard &#45; Copy (2).jsx</text>
</g>
<!-- pages/RegistrationWizard &#45; Copy (2).jsx&#45;&gt;components/GoldButton.jsx -->
<g id="edge52" class="edge">
<title>pages/RegistrationWizard &#45; Copy (2).jsx&#45;&gt;components/GoldButton.jsx</title>
<path fill="none" stroke="#757575" d="M526.71,-545.52C538.61,-543.09 550.54,-540.23 561.75,-536.88 594.51,-527.07 629.96,-510.8 654.92,-498.33"/>
<polygon fill="#757575" stroke="#757575" points="656.26,-501.57 663.6,-493.92 653.09,-495.33 656.26,-501.57"/>
</g>
<!-- pages/RegistrationWizard &#45; Copy (2).jsx&#45;&gt;theme.js -->
<g id="edge54" class="edge">
<title>pages/RegistrationWizard &#45; Copy (2).jsx&#45;&gt;theme.js</title>
<path fill="none" stroke="#757575" d="M562.15,-558.18C644.65,-558.38 747.18,-558.63 804.66,-558.77"/>
<polygon fill="#757575" stroke="#757575" points="804.36,-562.27 814.37,-558.79 804.38,-555.27 804.36,-562.27"/>
</g>
<!-- pages/RegistrationWizard &#45; Copy (2).jsx&#45;&gt;supabaseClient.js -->
<g id="edge53" class="edge">
<title>pages/RegistrationWizard &#45; Copy (2).jsx&#45;&gt;supabaseClient.js</title>
<path fill="none" stroke="#757575" d="M547.82,-545.51C552.72,-543.03 557.4,-540.17 561.75,-536.88 591.85,-514.05 577.75,-491.93 597.75,-459.88 619.03,-425.76 649.24,-390.26 668.73,-368.61"/>
<polygon fill="#757575" stroke="#757575" points="671.21,-371.09 675.35,-361.34 666.03,-366.37 671.21,-371.09"/>
</g>
<!-- pages/SuccessPage.jsx -->
<g id="node30" class="node">
<title>pages/SuccessPage.jsx</title>
<path fill="none" stroke="#cfffac" d="M152.83,-590.75C152.83,-590.75 9.42,-590.75 9.42,-590.75 5.46,-590.75 1.5,-586.79 1.5,-582.83 1.5,-582.83 1.5,-574.92 1.5,-574.92 1.5,-570.96 5.46,-567 9.42,-567 9.42,-567 152.83,-567 152.83,-567 156.79,-567 160.75,-570.96 160.75,-574.92 160.75,-574.92 160.75,-582.83 160.75,-582.83 160.75,-586.79 156.79,-590.75 152.83,-590.75"/>
<text xml:space="preserve" text-anchor="middle" x="81.12" y="-573.45" font-family="Arial" font-size="14.00" fill="#cfffac">pages/SuccessPage.jsx</text>
</g>
</g>
</svg>
